<?xml version="1.0" standalone="no"?>
<!DOCTYPE svg PUBLIC "-//W3C//DTD SVG 20010904//EN"
 "http://www.w3.org/TR/2001/REC-SVG-20010904/DTD/svg10.dtd">
<svg version="1.0" xmlns="http://www.w3.org/2000/svg"
 width="223.000000pt" height="223.000000pt" viewBox="0 0 223.000000 223.000000"
 preserveAspectRatio="xMidYMid meet">
<metadata>
Created by potrace 1.16, written by Peter Selinger 2001-2019
</metadata>
<g transform="translate(0.000000,223.000000) scale(0.100000,-0.100000)"
fill="#000000" stroke="none">
<path d="M2087 1984 c-3 -3 -114 -34 -177 -49 -60 -14 -321 -110 -398 -146
-24 -11 -61 -27 -82 -35 -22 -9 -40 -20 -40 -26 0 -5 -4 -7 -9 -3 -5 3 -12 1
-16 -5 -4 -6 -27 -21 -53 -34 -41 -21 -137 -81 -167 -104 -5 -4 -26 -19 -45
-32 -36 -26 -75 -57 -94 -76 -7 -8 -26 2 -66 33 -30 24 -60 47 -66 52 -5 5
-21 14 -35 21 -13 7 -26 16 -29 19 -13 16 -257 140 -325 165 -27 11 -68 27
-90 37 -22 10 -47 19 -55 21 -8 2 -17 6 -20 9 -3 4 -16 9 -30 10 -14 2 -27 7
-30 11 -3 3 -18 8 -35 11 -16 3 -46 10 -64 16 -40 12 -80 -6 -82 -37 0 -9 -2
-26 -4 -37 -22 -119 -30 -236 -30 -430 0 -211 7 -298 30 -405 11 -46 15 -65
19 -88 3 -12 8 -28 13 -35 4 -6 9 -19 11 -27 6 -29 20 -68 33 -92 5 -10 9 -22
9 -28 0 -6 24 -48 54 -95 51 -78 99 -132 161 -180 14 -11 32 -25 39 -32 8 -7
16 -9 20 -6 3 4 6 2 6 -3 0 -11 69 -41 156 -68 63 -20 116 -27 218 -27 75 -1
83 -3 135 -38 31 -21 65 -41 76 -45 81 -31 336 -41 457 -18 64 12 201 67 223
89 8 8 15 12 15 8 0 -3 10 3 22 15 12 11 25 20 29 20 19 0 120 113 182 202 37
54 67 99 66 100 -1 3 35 88 51 118 10 21 61 189 66 220 3 14 9 48 14 75 22
114 25 139 38 310 10 132 5 347 -13 520 -8 80 -15 103 -33 111 -19 9 -50 13
-55 8z m-10 -151 c13 -63 9 -549 -5 -648 -84 -581 -295 -857 -692 -907 -117
-14 -330 9 -330 36 0 13 123 191 154 224 17 18 66 34 210 69 l188 46 -6 35
c-3 19 -10 39 -17 42 -6 4 -70 -8 -142 -26 -73 -18 -134 -34 -136 -34 -9 0 13
34 88 142 71 101 88 119 119 128 20 6 107 27 192 48 l155 39 -1 37 c-1 20 -4
40 -8 43 -4 4 -68 -8 -142 -26 -74 -18 -137 -31 -140 -29 -2 3 40 69 95 148
55 78 97 148 94 156 -7 18 -52 46 -63 39 -5 -3 -52 -68 -105 -145 -54 -77
-101 -140 -105 -140 -4 0 -13 59 -20 130 -8 72 -18 137 -24 144 -7 9 -23 12
-43 9 -31 -5 -33 -8 -33 -47 0 -22 7 -91 15 -152 28 -216 31 -202 -66 -341
-46 -67 -87 -118 -91 -115 -3 4 -11 52 -17 107 -21 182 -18 175 -55 175 -18 0
-37 -5 -42 -10 -7 -7 -4 -60 7 -163 29 -248 31 -234 -59 -364 -42 -62 -82
-112 -89 -113 -16 0 -78 112 -115 206 -15 40 -35 117 -44 170 -36 211 27 396
198 579 160 172 395 314 725 439 114 43 303 103 330 105 7 1 16 -16 20 -36z
m-1802 -84 c241 -85 503 -221 639 -332 29 -23 29 -24 9 -43 -66 -64 -147 -199
-184 -308 -16 -44 -28 -74 -29 -66 0 8 12 86 26 174 21 131 23 160 12 167 -22
15 -56 10 -62 -8 -5 -18 -36 -201 -36 -215 0 -26 -26 7 -94 117 -43 69 -84
125 -91 125 -7 0 -23 -8 -35 -18 l-22 -18 81 -129 c45 -72 77 -131 71 -133 -5
-2 -58 11 -117 28 -101 30 -108 31 -120 14 -7 -10 -13 -26 -13 -35 0 -19 16
-25 205 -80 123 -35 128 -38 162 -93 30 -46 46 -160 22 -152 -84 29 -154 45
-161 38 -5 -5 -10 -22 -11 -37 -2 -27 1 -29 88 -56 50 -15 96 -32 103 -36 7
-4 23 -37 36 -73 19 -52 56 -138 84 -192 2 -5 -27 -8 -65 -8 -261 1 -469 162
-564 437 -69 200 -96 507 -69 784 15 152 20 179 35 179 7 0 53 -14 100 -31z"/>
</g>
</svg>
